# xmcd
#
# Track frame offsets: 
#        150
#        11505
#        22340
#        32163
#        43810
#        53758
#        63690
#        75965
#        85413
#        94870
#        106198
#        116650
#        127645
#        139273
#        149860
#        160330
#        171445
#        180180
#        195723
#        206210
#        215783
#        226405
#        237400
#        250028
#        261378
#        272498
#        283293
#        296383
#        309168
#        320868
#
# Disc length: 4434 seconds
#
# Revision: 5
# Processed by: cddbd v1.5.2PL0 Copyright (c) Steve Scherf et al.
# Submitted via: ExactAudioCopy v1.0b4
#
DISCID=c811501e
DTITLE=Patsy Cline - Sweet Dreams with Patsy. Her 30 Greatest Hits
DYEAR=1990
DGENRE=Country
TTITLE0=Just Out Of Reach
TTITLE1=I Can See An Angel
TTITLE2=Heartaches
TTITLE3=Sweet Dreams (Of You)
TTITLE4=Seven Lonely Days
TTITLE5=Foolin'  Round
TTITLE6=Crazy
TTITLE7=Love, Love, Love Me Honey Do
TTITLE8=Tra Le La Le La Triangle
TTITLE9=Hungry For Love
TTITLE10=I Loe You Honey
TTITLE11=Leavin' On Your Mind
TTITLE12=I've Love And Lost Again
TTITLE13=Gotta Lot Of Rhythm In My Soul
TTITLE14=Three Cigarettes In An Ashtray
TTITLE15=I Can't Forget You
TTITLE16=Ain't No Wheels On This Ship
TTITLE17=Why Can't He Be You
TTITLE18=San Antonio Rose
TTITLE19=True Love
TTITLE20=Honky  Tonk Merry Go Round
TTITLE21=There He Goes
TTITLE22=Just A Closer Walk With Thee
TTITLE23=Crazy Dreams
TTITLE24=A Stranger In My Arms
TTITLE25=I Cried All The Way To The Altar
TTITLE26=Imagine That
TTITLE27=Fingertips
TTITLE28=In Care Of The Blues
TTITLE29=Never No More
EXTD=
EXTT0=
EXTT1=
EXTT2=
EXTT3=
EXTT4=
EXTT5=
EXTT6=
EXTT7=
EXTT8=
EXTT9=
EXTT10=
EXTT11=
EXTT12=
EXTT13=
EXTT14=
EXTT15=
EXTT16=
EXTT17=
EXTT18=
EXTT19=
EXTT20=
EXTT21=
EXTT22=
EXTT23=
EXTT24=
EXTT25=
EXTT26=
EXTT27=
EXTT28=
EXTT29=
PLAYORDER=
